<svg width="35" height="36" viewBox="0 0 35 36" fill="none" xmlns="http://www.w3.org/2000/svg">
<path d="M17.5 0.43872C27.165 0.43872 35 8.27374 35 17.9387C35 27.6037 27.165 35.4387 17.5 35.4387C7.83502 35.4387 -3.42479e-07 27.6037 -7.64949e-07 17.9387C-1.18742e-06 8.27374 7.83502 0.43872 17.5 0.43872Z" fill="#2A99FF"/>
<path fill-rule="evenodd" clip-rule="evenodd" d="M12.2432 21.1956C11.9189 20.8714 11.9189 20.3457 12.2432 20.0215L17.2243 15.0404C17.5485 14.7162 18.0741 14.7162 18.3984 15.0404L23.3795 20.0215C23.7037 20.3457 23.7037 20.8714 23.3795 21.1956C23.0553 21.5198 22.5296 21.5198 22.2054 21.1956L17.8113 16.8015L13.4172 21.1956C13.093 21.5198 12.5674 21.5198 12.2432 21.1956Z" fill="white"/>
</svg>
