<svg width="20" height="20" viewBox="0 0 20 20" fill="none" xmlns="http://www.w3.org/2000/svg">
<path d="M19.69 4.97982C19.5222 4.75561 19.2858 4.5836 18.9811 4.46347C18.9974 4.74383 18.9775 4.97203 18.9213 5.14833L15.3185 17.0019C15.2543 17.21 15.1141 17.3761 14.8981 17.5003C14.6819 17.6245 14.4578 17.6865 14.2256 17.6865H3.14061C2.17984 17.6865 1.60346 17.4067 1.41122 16.8459C1.33117 16.6296 1.33521 16.4576 1.42334 16.3295C1.51134 16.2093 1.66345 16.1491 1.87975 16.1491H12.3162C13.0609 16.1491 13.5752 16.0109 13.8595 15.7347C14.144 15.4585 14.4301 14.8439 14.7182 13.8912L18.0089 3.01023C18.1849 2.41779 18.1129 1.89731 17.7926 1.44906C17.4723 1.00082 17.016 0.776566 16.4235 0.776566H7.28416C7.18009 0.776566 6.97586 0.812489 6.67161 0.884589L6.68355 0.848455C6.45934 0.800501 6.26917 0.778543 6.11306 0.782371C5.957 0.786535 5.81284 0.832512 5.68076 0.920723C5.54867 1.00881 5.4425 1.10278 5.36249 1.20281C5.28244 1.30293 5.20429 1.43106 5.12827 1.58712C5.05235 1.74339 4.9882 1.88755 4.93616 2.01964C4.88413 2.15172 4.82402 2.29193 4.75608 2.44021C4.68794 2.58832 4.62206 2.71039 4.55795 2.80643C4.50987 2.87049 4.44194 2.95454 4.35377 3.05865C4.26581 3.16272 4.19371 3.25484 4.13768 3.33489C4.08169 3.41494 4.04556 3.487 4.02966 3.55111C4.01376 3.62308 4.02166 3.72917 4.05368 3.86938C4.08565 4.00937 4.09772 4.11138 4.0896 4.17549C4.05763 4.4797 3.9475 4.86595 3.75943 5.33447C3.57136 5.80291 3.40103 6.14128 3.24897 6.34934C3.21696 6.3893 3.12896 6.4794 2.9848 6.61957C2.84064 6.75964 2.7526 6.88163 2.72067 6.9857C2.68862 7.02571 2.6866 7.13785 2.71461 7.32197C2.74263 7.50622 2.75277 7.63422 2.74469 7.70628C2.71251 7.97857 2.61261 8.33882 2.44439 8.78723C2.27617 9.23552 2.10812 9.60389 1.9399 9.89208C1.91596 9.94008 1.84799 10.0321 1.73576 10.1683C1.62378 10.3045 1.55559 10.4166 1.53161 10.5044C1.51563 10.5685 1.51773 10.6806 1.53767 10.8407C1.55757 11.0008 1.55559 11.1208 1.53161 11.2009C1.46763 11.5049 1.34749 11.8714 1.17132 12.2998C0.995197 12.728 0.815032 13.0947 0.630744 13.3986C0.582874 13.4788 0.516663 13.573 0.432701 13.6809C0.348613 13.7888 0.282612 13.883 0.234532 13.963C0.186535 14.0431 0.154482 14.1271 0.138455 14.2153C0.130462 14.2633 0.142577 14.3414 0.174589 14.4496C0.206559 14.5575 0.218631 14.6436 0.210513 14.7079C0.202436 14.8199 0.186535 14.9681 0.162516 15.1524C0.138455 15.3363 0.126382 15.4443 0.126382 15.4763C-0.049745 15.9568 -0.0418367 16.4652 0.150443 17.0019C0.374651 17.6261 0.772883 18.1528 1.34535 18.5811C1.91786 19.0095 2.51224 19.2234 3.12883 19.2234H14.2139C14.7341 19.2234 15.2246 19.0492 15.685 18.7011C16.1453 18.3528 16.4517 17.9226 16.6035 17.4099L19.9061 6.52921C20.0825 5.95258 20.0105 5.43618 19.69 4.97982ZM6.91176 5.00384L7.16402 4.23513C7.19599 4.13107 7.26199 4.041 7.36211 3.96495C7.46222 3.88902 7.56436 3.85087 7.66843 3.85087H14.9705C15.0825 3.85087 15.1625 3.88885 15.2106 3.96495C15.2586 4.04105 15.2668 4.13107 15.2348 4.23513L14.9823 5.00384C14.9502 5.10795 14.8844 5.1978 14.7841 5.27406C14.6839 5.34999 14.5819 5.38798 14.4779 5.38798H7.17605C7.06391 5.38798 6.9839 5.35012 6.93582 5.27406C6.88778 5.1978 6.87979 5.10795 6.91176 5.00384ZM5.91502 8.07835L6.16724 7.30977C6.19921 7.2057 6.2653 7.11564 6.36533 7.03959C6.46544 6.96349 6.56745 6.92551 6.67165 6.92551H13.9735C14.0856 6.92551 14.1658 6.96337 14.2137 7.03959C14.2617 7.11568 14.2697 7.2057 14.2376 7.30977L13.9854 8.07835C13.9535 8.18242 13.8874 8.27256 13.7874 8.34853C13.6871 8.42463 13.5852 8.46262 13.481 8.46262H6.17919C6.06713 8.46262 5.98708 8.42476 5.93908 8.34853C5.89096 8.27256 5.88301 8.18242 5.91502 8.07835Z" fill="white"/>
</svg>
