<svg width="87" height="81" viewBox="0 0 87 81" fill="none" xmlns="http://www.w3.org/2000/svg">
<ellipse cx="40" cy="39.5" rx="40" ry="39.5" fill="#2A99FF" fill-opacity="0.19"/>
<g clip-path="url(#clip0_60_303)">
<g clip-path="url(#clip1_60_303)">
<path d="M71.7352 65.0852C70.5496 69.7304 66.3549 72.9728 61.5608 72.9497H36.7179C31.9238 72.9728 27.7291 69.7304 26.5435 65.0852C24.202 55.4882 30.418 43.1088 37.8309 34.0999H60.4478C67.8608 43.1088 74.0767 55.4882 71.7352 65.0852Z" fill="#BB9B6A"/>
<path d="M60.4478 34.0999H57.2979C64.7108 43.1088 70.9268 55.4882 68.5853 65.0852C67.3997 69.7304 63.2049 72.9728 58.4108 72.9497H61.5608C66.3549 72.9728 70.5497 69.7304 71.7353 65.0852C74.0768 55.4882 67.8608 43.1088 60.4478 34.0999Z" fill="#9F7F4E"/>
<path d="M62.8627 22.1404L58.5893 28.8498H39.6894L35.4159 22.1404C34.7981 21.169 34.7594 19.938 35.3149 18.9298C35.8704 17.9215 36.9317 17.2966 38.0829 17.2999H40.8234L40.4559 16.4074C40.0525 15.4355 40.1611 14.3264 40.7452 13.4512C41.3294 12.5759 42.3121 12.0502 43.3643 12.0499H54.9143C55.9666 12.0502 56.9492 12.5759 57.5334 13.4512C58.1176 14.3264 58.2261 15.4355 57.8228 16.4074L57.4553 17.2999H60.1958C61.3469 17.2966 62.4082 17.9215 62.9637 18.9298C63.5193 19.938 63.4805 21.169 62.8627 22.1404Z" fill="#BB9B6A"/>
<path d="M57.0459 17.2999C58.1971 17.2966 59.2584 17.9215 59.8139 18.9298C60.3695 19.9381 60.3307 21.1691 59.7129 22.1404L55.4395 28.8499H58.5894L62.8629 22.1404C63.4807 21.1691 63.5194 19.9381 62.9639 18.9298C62.4084 17.9215 61.3471 17.2966 60.1959 17.2999H57.0459Z" fill="#9F7F4E"/>
<path d="M57.4554 17.2999L54.3894 24.6499L57.4554 17.2999Z" fill="#A0522D"/>
<path d="M43.8895 24.6499L40.8235 17.2999L43.8895 24.6499Z" fill="#A0522D"/>
<path d="M25.5239 65.3362C26.811 70.4599 31.4352 74.0387 36.7179 73.9997H61.5608C66.8441 74.0385 71.4686 70.4586 72.7548 65.3341C75.1047 55.7025 69.1701 43.5992 62.4459 34.9262C63.701 34.4973 64.6172 33.4111 64.8284 32.1017C66.7826 32.396 68.4336 33.7056 69.1649 35.5415C69.3812 36.0797 69.9928 36.3406 70.5309 36.1243C71.069 35.908 71.3299 35.2964 71.1136 34.7582C70.1557 32.3431 68.0295 30.5852 65.4773 30.0984C67.6649 28.6471 69.0117 26.224 69.0893 23.5999C69.0893 23.02 68.6192 22.5499 68.0393 22.5499C67.4594 22.5499 66.9893 23.02 66.9893 23.5999C66.8663 25.7814 65.625 27.7446 63.707 28.7911C63.032 28.1564 62.1409 27.802 61.2143 27.7999H60.5024L63.749 22.7032C64.5721 21.4086 64.6237 19.7681 63.8838 18.4242C63.1438 17.0803 61.73 16.2468 60.1958 16.25H58.9768C59.304 14.9927 59.03 13.6547 58.235 12.6272C57.4399 11.5998 56.2135 10.9988 54.9143 11H43.3644C42.0652 10.9988 40.8388 11.5998 40.0438 12.6272C39.2487 13.6547 38.9747 14.9927 39.302 16.25H38.0829C36.5486 16.2469 35.1347 17.0807 34.3949 18.4249C33.6552 19.7691 33.7072 21.4097 34.5308 22.7043L37.7763 27.7999H37.0644C35.2776 27.7967 33.7487 29.082 33.4448 30.8428C33.1408 32.6036 34.1504 34.3271 35.8349 34.9231C29.1097 43.5981 23.173 55.7014 25.5239 65.3362ZM36.2339 19.442C36.6007 18.7639 37.312 18.3438 38.0829 18.35H40.1273L42.9202 25.0542C43.0647 25.4004 43.3828 25.6433 43.7549 25.6914C44.127 25.7394 44.4964 25.5853 44.7241 25.2871C44.9517 24.9889 45.003 24.5919 44.8585 24.2457L41.4261 16.0074C41.1562 15.3594 41.2279 14.6193 41.6174 14.0351C42.0068 13.451 42.6623 13.1001 43.3644 13.1H54.9143C55.6164 13.1001 56.2719 13.451 56.6614 14.0351C57.0508 14.6193 57.1226 15.3594 56.8526 16.0074L53.4202 24.2457C53.1969 24.7809 53.4498 25.3958 53.9851 25.6191C54.5203 25.8423 55.1352 25.5894 55.3585 25.0542L58.1515 18.35H60.1958C60.9644 18.3453 61.6741 18.7608 62.0462 19.4334C62.4182 20.1059 62.3932 20.928 61.9808 21.5766L58.0129 27.7999H40.268L36.3042 21.5776C35.8873 20.9336 35.8603 20.112 36.2339 19.442ZM38.3339 35.1499H41.7894C42.3693 35.1499 42.8394 34.6798 42.8394 34.0999C42.8394 33.52 42.3693 33.0499 41.7894 33.0499H37.0644C36.1946 33.0499 35.4894 32.3447 35.4894 31.4749C35.4894 30.6051 36.1946 29.8999 37.0644 29.8999H61.2143C62.0841 29.8999 62.7893 30.6051 62.7893 31.4749C62.7893 32.3447 62.0841 33.0499 61.2143 33.0499H41.8672C41.2873 33.0499 40.8172 33.52 40.8172 34.0999C40.8172 34.6798 41.2873 35.1499 41.8672 35.1499H59.9417C66.6942 43.4847 72.9858 55.5334 70.7157 64.8343C69.658 69.0184 65.8764 71.9369 61.5608 71.8997H36.7179C32.4029 71.9378 28.6215 69.02 27.5641 64.8364C25.294 55.5334 31.5845 43.4847 38.337 35.1499H38.3339Z" fill="#0E2840"/>
<path d="M33.3894 54.0498H36.5393V62.4498C36.5393 63.0297 37.0094 63.4998 37.5893 63.4998C38.1692 63.4998 38.6393 63.0297 38.6393 62.4498V54.0498H41.7893C42.3692 54.0498 42.8393 53.5797 42.8393 52.9998C42.8393 52.4199 42.3692 51.9498 41.7893 51.9498H33.3894C32.8095 51.9498 32.3394 52.4199 32.3394 52.9998C32.3394 53.5797 32.8095 54.0498 33.3894 54.0498Z" fill="#0E2840"/>
<path d="M56.9565 63.3234C57.1882 63.478 57.4718 63.5342 57.7449 63.4796C58.0181 63.4251 58.2583 63.2643 58.4128 63.0325L60.6892 59.6148L62.9656 63.0294C63.2875 63.5119 63.9395 63.6421 64.422 63.3202C64.9044 62.9984 65.0347 62.3464 64.7128 61.8639L61.9492 57.7248L64.7107 53.5826C64.9189 53.2705 64.9448 52.871 64.7786 52.5347C64.6124 52.1983 64.2794 51.9762 63.905 51.9519C63.5306 51.9277 63.1717 52.105 62.9635 52.4171L60.6892 55.8348L58.4128 52.4202C58.091 51.9378 57.439 51.8076 56.9565 52.1294C56.474 52.4512 56.3438 53.1033 56.6657 53.5857L59.4292 57.7248L56.6678 61.867C56.3454 62.349 56.4747 63.0009 56.9565 63.3234Z" fill="#0E2840"/>
<path d="M44.513 63.4094C44.7675 63.5225 45.0566 63.5298 45.3165 63.4298C45.5764 63.3297 45.786 63.1305 45.899 62.876L47.0215 60.3497H51.2571L52.3796 62.876C52.5319 63.2188 52.8555 63.4544 53.2286 63.494C53.6017 63.5335 53.9675 63.371 54.1883 63.0677C54.4091 62.7643 54.4513 62.3663 54.299 62.0234L52.913 58.906L52.8993 58.8755L50.099 52.5755C49.9306 52.1961 49.5544 51.9515 49.1393 51.9515C48.7242 51.9515 48.348 52.1961 48.1796 52.5755L45.3793 58.8755L45.3656 58.906L43.9796 62.0234C43.8665 62.2779 43.8592 62.5669 43.9592 62.8269C44.0593 63.0868 44.2585 63.2963 44.513 63.4094ZM49.1393 55.5848L50.3237 58.2497H47.9549L49.1393 55.5848Z" fill="#0E2840"/>
</g>
</g>
<defs>
<clipPath id="clip0_60_303">
<rect width="70" height="70" fill="white" transform="translate(17 11)"/>
</clipPath>
<clipPath id="clip1_60_303">
<rect width="70" height="70" fill="white" transform="translate(17 11)"/>
</clipPath>
</defs>
</svg>
