<svg width="25" height="25" viewBox="0 0 25 25" fill="none" xmlns="http://www.w3.org/2000/svg">
<g clip-path="url(#clip0_60_382)">
<path d="M19.9759 7.84666C19.419 8.09094 18.8255 8.25286 18.2068 8.33147C18.8433 7.95148 19.3291 7.35436 19.5575 6.63462C18.9641 6.9884 18.3088 7.2383 17.6106 7.37775C17.0471 6.77782 16.2439 6.40625 15.3678 6.40625C13.6679 6.40625 12.2995 7.78582 12.2995 9.47706C12.2995 9.72041 12.32 9.95439 12.3706 10.1771C9.81801 10.0527 7.55934 8.82939 6.04202 6.96594C5.77712 7.42549 5.62174 7.95148 5.62174 8.51773C5.62174 9.58095 6.16932 10.5234 6.98555 11.0691C6.49225 11.0597 6.00832 10.9165 5.59833 10.691C5.59833 10.7003 5.59833 10.7125 5.59833 10.7247C5.59833 12.2166 6.66261 13.4557 8.05825 13.7412C7.80833 13.8095 7.53594 13.8423 7.25326 13.8423C7.05669 13.8423 6.85825 13.831 6.67197 13.7899C7.06979 15.0056 8.19866 15.8995 9.54094 15.9285C8.49632 16.7456 7.16995 17.2379 5.73406 17.2379C5.48226 17.2379 5.24077 17.2266 4.99927 17.1957C6.35934 18.0727 7.9712 18.5734 9.70943 18.5734C15.3594 18.5734 18.4483 13.8938 18.4483 9.8374C18.4483 9.70169 18.4436 9.57066 18.4371 9.44056C19.0464 9.00816 19.5585 8.46812 19.9759 7.84666Z" fill="white"/>
</g>
<defs>
<clipPath id="clip0_60_382">
<rect width="14.9767" height="14.975" fill="white" transform="translate(5 5)"/>
</clipPath>
</defs>
</svg>
