<svg width="40" height="41" viewBox="0 0 40 41" fill="none" xmlns="http://www.w3.org/2000/svg">
<circle cx="20" cy="20.5" r="20" fill="white" fill-opacity="0.2"/>
<g clip-path="url(#clip0_60_169)">
<path d="M28.9993 15.7316C28.3671 16.0089 27.6935 16.1927 26.9911 16.282C27.7136 15.8506 28.2651 15.1727 28.5243 14.3557C27.8507 14.7573 27.107 15.041 26.3143 15.1993C25.6747 14.5182 24.7631 14.0964 23.7686 14.0964C21.8391 14.0964 20.2857 15.6626 20.2857 17.5825C20.2857 17.8587 20.3091 18.1244 20.3665 18.3772C17.469 18.2359 14.9052 16.8472 13.1829 14.7318C12.8822 15.2535 12.7058 15.8506 12.7058 16.4934C12.7058 17.7004 13.3274 18.7704 14.2539 19.3898C13.694 19.3792 13.1446 19.2166 12.6793 18.9606C12.6793 18.9712 12.6793 18.985 12.6793 18.9988C12.6793 20.6924 13.8873 22.0992 15.4715 22.4232C15.1878 22.5008 14.8786 22.538 14.5578 22.538C14.3346 22.538 14.1094 22.5252 13.898 22.4785C14.3495 23.8587 15.6309 24.8734 17.1545 24.9063C15.9688 25.8339 14.4632 26.3927 12.8333 26.3927C12.5475 26.3927 12.2734 26.38 11.9993 26.3449C13.5431 27.3405 15.3727 27.9089 17.3458 27.9089C23.759 27.9089 27.2653 22.5964 27.2653 17.9916C27.2653 17.8375 27.26 17.6887 27.2525 17.5411C27.9442 17.0502 28.5254 16.4371 28.9993 15.7316Z" fill="white"/>
</g>
<defs>
<clipPath id="clip0_60_169">
<rect width="17" height="17" fill="white" transform="translate(12 12.5)"/>
</clipPath>
</defs>
</svg>
