<svg width="25" height="25" viewBox="0 0 25 25" fill="none" xmlns="http://www.w3.org/2000/svg">
<g clip-path="url(#clip0_60_378)">
<path d="M14.841 13.225L13.5691 14.5012C13.0533 15.0189 12.1457 15.03 11.6187 14.5012L10.3467 13.225L5.7782 17.8083C5.94825 17.887 6.13575 17.9339 6.33509 17.9339H18.8527C19.0521 17.9339 19.2395 17.887 19.4095 17.8084L14.841 13.225Z" fill="white"/>
<path d="M18.8527 7.25421H6.33503C6.13569 7.25421 5.94819 7.30114 5.7782 7.37977L10.66 12.2778C10.6603 12.2781 10.6607 12.2781 10.661 12.2785C10.6614 12.2788 10.6614 12.2792 10.6614 12.2792L12.2488 13.8718C12.4174 14.0404 12.7704 14.0404 12.939 13.8718L14.526 12.2795C14.526 12.2795 14.5264 12.2788 14.5267 12.2785C14.5267 12.2785 14.5274 12.2781 14.5278 12.2778L19.4094 7.37974C19.2394 7.30108 19.052 7.25421 18.8527 7.25421Z" fill="white"/>
<path d="M5.14099 8.0025C5.05301 8.18042 4.99902 8.37791 4.99902 8.58947V16.5984C4.99902 16.8099 5.05295 17.0074 5.14096 17.1854L9.7174 12.5941L5.14099 8.0025Z" fill="white"/>
<path d="M20.044 8.00269L15.4677 12.5943L20.044 17.1857C20.132 17.0077 20.186 16.8102 20.186 16.5986V8.58971C20.186 8.3781 20.132 8.1806 20.044 8.00269Z" fill="white"/>
</g>
<defs>
<clipPath id="clip0_60_378">
<rect width="15.1873" height="15.1873" fill="white" transform="translate(5 5)"/>
</clipPath>
</defs>
</svg>
