<svg width="40" height="41" viewBox="0 0 40 41" fill="none" xmlns="http://www.w3.org/2000/svg">
<circle cx="20" cy="20.5" r="20" fill="white" fill-opacity="0.2"/>
<g clip-path="url(#clip0_60_175)">
<path d="M24.75 12.5H16.25C13.9127 12.5 12 14.4119 12 16.75V25.25C12 27.5873 13.9127 29.5 16.25 29.5H24.75C27.0873 29.5 29 27.5873 29 25.25V16.75C29 14.4119 27.0873 12.5 24.75 12.5ZM20.5 24.5415C18.5437 24.5415 16.9583 22.9554 16.9583 21C16.9583 19.0437 18.5437 17.4583 20.5 17.4583C22.4554 17.4583 24.0417 19.0437 24.0417 21C24.0417 22.9554 22.4554 24.5415 20.5 24.5415ZM25.1042 17.4583C24.5169 17.4583 24.0417 16.9825 24.0417 16.3958C24.0417 15.8091 24.5169 15.3333 25.1042 15.3333C25.6916 15.3333 26.1667 15.8091 26.1667 16.3958C26.1667 16.9825 25.6916 17.4583 25.1042 17.4583Z" fill="white"/>
</g>
<defs>
<clipPath id="clip0_60_175">
<rect width="17" height="17" fill="white" transform="translate(12 12.5)"/>
</clipPath>
</defs>
</svg>
