<svg width="25" height="25" viewBox="0 0 25 25" fill="none" xmlns="http://www.w3.org/2000/svg">
<g clip-path="url(#clip0_60_383)">
<path d="M15.5 5H8.5C6.57517 5 5 6.57449 5 8.5V15.5C5 17.4248 6.57517 19 8.5 19H15.5C17.4248 19 19 17.4248 19 15.5V8.5C19 6.57449 17.4248 5 15.5 5ZM12 14.9166C10.3889 14.9166 9.08328 13.6103 9.08328 12C9.08328 10.3889 10.3889 9.08328 12 9.08328C13.6103 9.08328 14.9167 10.3889 14.9167 12C14.9167 13.6103 13.6103 14.9166 12 14.9166ZM15.7917 9.08328C15.308 9.08328 14.9167 8.69144 14.9167 8.20828C14.9167 7.72511 15.308 7.33328 15.7917 7.33328C16.2754 7.33328 16.6667 7.72511 16.6667 8.20828C16.6667 8.69144 16.2754 9.08328 15.7917 9.08328Z" fill="white"/>
</g>
<defs>
<clipPath id="clip0_60_383">
<rect width="14" height="14" fill="white" transform="translate(5 5)"/>
</clipPath>
</defs>
</svg>
