<svg width="25" height="25" viewBox="0 0 25 25" fill="none" xmlns="http://www.w3.org/2000/svg">
<path d="M9.69902 15.7778C10.398 16.4757 11.1359 17.1058 11.9126 17.668C12.6893 18.2302 13.466 18.6761 14.2427 19.0056C15.0194 19.3352 15.7548 19.5 16.449 19.5C16.9199 19.5 17.3592 19.4152 17.767 19.2455C18.1747 19.0759 18.5437 18.8093 18.8738 18.4459C19.0679 18.2326 19.2208 18.0024 19.3325 17.7552C19.4441 17.5129 19.5 17.2681 19.5 17.021C19.5 16.8368 19.4636 16.6623 19.3907 16.4976C19.3179 16.3279 19.1941 16.1825 19.0194 16.0614L16.784 14.4766C16.6141 14.3602 16.4563 14.273 16.3107 14.2148C16.165 14.1567 16.0267 14.1276 15.8956 14.1276C15.7306 14.1276 15.5704 14.1736 15.415 14.2657C15.2597 14.353 15.0995 14.479 14.9344 14.6438L14.4175 15.1526C14.3446 15.2302 14.2524 15.269 14.1408 15.269C14.0825 15.269 14.0267 15.2593 13.9733 15.2399C13.9247 15.2205 13.8835 15.2035 13.8495 15.189C13.6213 15.0678 13.3301 14.8594 12.9757 14.5638C12.6213 14.2633 12.2645 13.9337 11.9053 13.5751C11.551 13.2165 11.2233 12.8602 10.9223 12.5064C10.6213 12.1527 10.4126 11.8643 10.2961 11.6413C10.2767 11.6026 10.2573 11.559 10.2379 11.5105C10.2233 11.4572 10.216 11.4039 10.216 11.3506C10.216 11.2439 10.2524 11.1543 10.3252 11.0816L10.8422 10.5509C11.0024 10.3861 11.1286 10.2262 11.2209 10.0711C11.3131 9.91598 11.3592 9.75605 11.3592 9.59127C11.3592 9.46041 11.3277 9.32229 11.2646 9.17689C11.2063 9.0315 11.1165 8.87398 10.9951 8.70436L9.4296 6.50161C9.30339 6.32714 9.15291 6.20113 8.97815 6.12359C8.80339 6.0412 8.61893 6 8.42475 6C7.92475 6 7.45631 6.21082 7.01942 6.63247C6.66505 6.97173 6.40534 7.34733 6.24029 7.75929C6.0801 8.16639 6 8.60258 6 9.06784C6 9.76574 6.16262 10.5 6.48786 11.2706C6.8131 12.0363 7.25485 12.8045 7.8131 13.5751C8.37135 14.3457 8.99999 15.0799 9.69902 15.7778Z" fill="white"/>
</svg>
