<svg width="26" height="26" viewBox="0 0 26 26" fill="none" xmlns="http://www.w3.org/2000/svg">
<g clip-path="url(#clip0_60_201)">
<path d="M9.6145 18.8459V23.6772C9.6145 24.0147 9.83117 24.3137 10.152 24.4199C10.2322 24.4459 10.3145 24.4584 10.3958 24.4584C10.6395 24.4584 10.8749 24.3439 11.0249 24.1397L13.851 20.2939L9.6145 18.8459Z" fill="white"/>
<path d="M25.1719 0.644884C24.9323 0.475092 24.6178 0.452176 24.3573 0.588634L0.919838 12.8282C0.642755 12.973 0.479213 13.2688 0.50213 13.5803C0.526088 13.8928 0.73338 14.1595 1.02817 14.2605L7.5438 16.4876L21.4198 4.62301L10.6823 17.5595L21.6021 21.2918C21.6834 21.3188 21.7688 21.3334 21.8542 21.3334C21.9959 21.3334 22.1365 21.2949 22.2605 21.2199C22.4584 21.0991 22.5928 20.8959 22.6271 20.6678L25.4917 1.39697C25.5344 1.1053 25.4115 0.815717 25.1719 0.644884Z" fill="white"/>
</g>
<defs>
<clipPath id="clip0_60_201">
<rect width="25" height="25" fill="white" transform="translate(0.5 0.5)"/>
</clipPath>
</defs>
</svg>
