<svg width="87" height="81" viewBox="0 0 87 81" fill="none" xmlns="http://www.w3.org/2000/svg">
<ellipse cx="40" cy="39.5" rx="40" ry="39.5" fill="#2A99FF" fill-opacity="0.19"/>
<g clip-path="url(#clip0_60_290)">
<circle cx="52" cy="46" r="16" fill="#FDB515"/>
<path d="M66.958 59.4111L64.3319 56.7856C69.0449 51.7557 69.7542 42.8976 65.8006 37.1626L71.7645 32.7557C73.1493 34.1803 75.0548 35.0625 77.1562 35.0625C87.3044 34.6504 87.3017 19.6136 77.1561 19.2032C71.3794 19.083 67.5998 25.9795 70.4729 30.9905L64.5024 35.4021C62.1322 32.6105 58.8506 30.6212 55.1178 29.8995L55.5642 26.2982C64.045 25.6598 63.7941 13.4702 55.2811 13.1875C47.7217 13.3169 46.2682 23.7939 53.3934 26.0329L52.946 29.6417C48.5688 29.3155 44.2944 30.9579 41.2146 33.668L38.5888 31.0422C44.4157 24.0992 39.2728 13.1064 30.1248 13.1876C24.0938 13.1875 19.1874 18.0939 19.1874 24.125C19.1077 33.2731 30.0992 38.4162 37.0421 32.5888L39.668 35.2147C36.2195 39.0135 34.6833 44.9935 36.1426 50.1367L31.5415 51.6706C28.4009 45.7266 19.2039 47.9303 19.1875 54.7501C19.6555 64.1087 33.22 63.0516 32.2275 53.7469L36.8243 52.2144C38.0871 55.2867 40.254 57.891 42.9951 59.6989L40.5532 64.0274C35.7029 62.0167 30.0154 65.884 30.1251 71.1563C30.125 75.3775 33.5595 78.8125 37.7812 78.8125C45.0503 78.837 48.1773 69.4417 42.456 65.1066L44.9031 60.7691C50.5208 63.675 58.2441 62.5419 62.7853 58.3323L65.4114 60.9577C59.5842 67.9004 64.7271 78.8933 73.8752 78.8124C79.9061 78.8125 84.8125 73.9056 84.8125 67.875C84.8922 58.7275 73.9011 53.5837 66.958 59.4111ZM77.1562 21.3906C80.1715 21.3906 82.6249 23.9664 82.6249 27.1328C82.3641 34.7342 71.9473 34.7324 71.6874 27.1327C71.6874 23.9664 74.1409 21.3906 77.1562 21.3906ZM36.3148 30.3031C30.9672 35.7876 21.32 31.874 21.375 24.1248C21.3749 19.3003 25.3003 15.375 30.1249 15.375C37.8664 15.3218 41.7839 24.9491 36.3148 30.3031ZM25.7499 59.125C19.9681 58.9415 19.9694 50.5576 25.7501 50.375C31.5318 50.5585 31.5304 58.9424 25.7499 59.125ZM43.2499 71.1563C43.2499 74.1716 40.7965 76.625 37.7812 76.625C30.5433 76.368 30.5452 65.9435 37.7813 65.6875C40.7965 65.6875 43.2499 68.141 43.2499 71.1563ZM50.9062 19.75C51.09 13.9682 59.4732 13.9696 59.6562 19.7501C59.4723 25.5318 51.0892 25.5305 50.9062 19.75ZM51.9999 60.2188C33.1368 59.4377 33.1423 32.5591 52.0001 31.7812C59.8404 31.7813 66.2187 38.1595 66.2187 46C66.2187 53.84 59.8404 60.2188 51.9999 60.2188ZM73.8749 76.625C66.1326 76.6782 62.2156 67.0491 67.6863 61.6956C73.0347 56.2128 82.68 60.127 82.6249 67.8751C82.6249 72.6997 78.6996 76.625 73.8749 76.625Z" fill="#0E2840"/>
<path d="M50.9063 42.7188H55.2813C56.7187 42.6944 56.719 40.5556 55.2813 40.5312H53.0938V39.4375C53.0938 38.8335 52.6041 38.3438 52.0001 38.3438C51.3961 38.3438 50.9063 38.8335 50.9063 39.4375V40.5312C46.5785 40.6464 46.581 46.9802 50.9065 47.0938C50.9063 47.0938 53.0938 47.0938 53.0938 47.0938C53.6968 47.0938 54.1876 47.584 54.1876 48.1875C54.1876 48.791 53.6968 49.2812 53.0938 49.2812H48.7188C47.2826 49.3039 47.2804 51.4453 48.7189 51.4688C48.7188 51.4688 50.9063 51.4688 50.9063 51.4688V52.5625C50.9063 53.167 51.3961 53.6562 52.0001 53.6562C52.6041 53.6562 53.0938 53.167 53.0938 52.5625V51.4688C57.4208 51.3545 57.4198 45.0195 53.0938 44.9062H50.9063C49.4704 44.8816 49.4684 42.7439 50.9063 42.7188Z" fill="#0E2840"/>
<path d="M52 33.9688C45.3659 33.9688 39.9688 39.3659 39.9688 46C40.6296 61.9611 63.3728 61.9564 64.0313 45.9999C64.0313 39.3659 58.6341 33.9688 52 33.9688ZM52 55.8438C46.5724 55.8438 42.1562 51.4282 42.1562 46C42.6973 32.941 61.3047 32.9448 61.8438 46.0001C61.8438 51.4282 57.4276 55.8438 52 55.8438Z" fill="#0E2840"/>
</g>
<defs>
<clipPath id="clip0_60_290">
<rect width="70" height="70" fill="white" transform="translate(17 11)"/>
</clipPath>
</defs>
</svg>
