<svg width="87" height="81" viewBox="0 0 87 81" fill="none" xmlns="http://www.w3.org/2000/svg">
<ellipse cx="40" cy="39.5" rx="40" ry="39.5" fill="#2A99FF" fill-opacity="0.19"/>
<g clip-path="url(#clip0_60_280)">
<circle cx="51.5" cy="45.5" r="19.5" fill="#FDB515"/>
<path d="M82.8232 70.3852C82.8711 70.9867 82.4227 71.5145 81.8211 71.5623L74.9154 72.116C74.8867 72.1187 74.8566 72.1201 74.8279 72.1201C74.5395 72.1201 74.2605 72.0053 74.0541 71.8002C73.8271 71.5732 73.7123 71.2588 73.7369 70.9389L74.2906 64.0332C74.3385 63.4316 74.8676 62.9818 75.4678 63.0311C76.0693 63.0789 76.5191 63.6066 76.4699 64.2082L76.1582 68.0992C81.7008 62.048 84.7441 54.2346 84.7441 45.9986C84.7441 39.2871 82.7262 32.8354 78.909 27.3406C78.5645 26.8443 78.6875 26.1635 79.1838 25.8189C79.6801 25.4744 80.3609 25.5975 80.7055 26.0938C84.7783 31.9563 86.9316 38.84 86.9316 46C86.9316 54.843 83.6422 63.2307 77.6553 69.7029L81.6447 69.383C82.2449 69.3352 82.774 69.7836 82.8232 70.3852ZM33.342 19.091C38.8367 15.2738 45.2885 13.2559 52 13.2559C60.2359 13.2559 68.0494 16.2992 74.1006 21.8418L70.2096 21.5301C69.6066 21.4809 69.0803 21.9307 69.0324 22.5322C68.9846 23.1338 69.433 23.6615 70.0346 23.7094L76.9402 24.2631C76.9689 24.2658 76.999 24.2672 77.0277 24.2672C77.3162 24.2672 77.5951 24.1523 77.8016 23.9473C78.0285 23.7203 78.1434 23.4059 78.1188 23.0859L77.565 16.1803C77.5172 15.5773 76.9867 15.1289 76.3879 15.1781C75.7863 15.226 75.3365 15.7537 75.3857 16.3553L75.7057 20.3447C69.2307 14.3578 60.843 11.0684 52 11.0684C44.84 11.0684 37.9576 13.2217 32.0938 17.2945C31.5975 17.6391 31.4744 18.3213 31.8189 18.8162C32.1648 19.3125 32.8457 19.4355 33.342 19.091ZM70.658 72.909C65.1633 76.7262 58.7115 78.7441 52 78.7441C43.7641 78.7441 35.9506 75.7008 29.8994 70.1582L33.7904 70.4699C34.392 70.5191 34.9197 70.0693 34.9676 69.4678C35.0154 68.8662 34.567 68.3385 33.9654 68.2906L27.0598 67.7369C26.7398 67.7123 26.4254 67.8271 26.1984 68.0541C25.9715 68.2811 25.8566 68.5955 25.8812 68.9154L26.435 75.8211C26.4814 76.3939 26.96 76.8273 27.5246 76.8273C27.5533 76.8273 27.5834 76.826 27.6135 76.8232C28.215 76.7754 28.6648 76.2477 28.6156 75.6461L28.2957 71.6566C34.7693 77.6422 43.157 80.9316 52 80.9316C59.16 80.9316 66.0438 78.7783 71.9062 74.7055C72.4025 74.3609 72.5256 73.6787 72.1811 73.1838C71.8352 72.6875 71.1543 72.5645 70.658 72.909ZM19.2559 46C19.2559 37.7641 22.2992 29.9506 27.8418 23.8994L27.5301 27.7904C27.4822 28.392 27.9307 28.9197 28.5322 28.9676C28.5623 28.9703 28.591 28.9717 28.6211 28.9717C29.1857 28.9717 29.6643 28.5383 29.7107 27.9654L30.2645 21.0598C30.2904 20.7398 30.1742 20.4254 29.9473 20.1984C29.7203 19.9715 29.4072 19.8566 29.0859 19.8812L22.1803 20.435C21.5787 20.4828 21.1289 21.0105 21.1781 21.6121C21.226 22.2137 21.7578 22.6635 22.3553 22.6143L26.3447 22.2943C20.3578 28.7693 17.0684 37.157 17.0684 46C17.0684 53.16 19.2217 60.0438 23.2945 65.9062C23.5064 66.2125 23.8469 66.3766 24.1941 66.3766C24.4102 66.3766 24.6275 66.3137 24.8176 66.1811C25.3139 65.8365 25.4369 65.1543 25.0924 64.6594C21.2738 59.1633 19.2559 52.7115 19.2559 46ZM72.933 46C72.933 57.5418 63.5432 66.933 52 66.933C40.4568 66.933 31.067 57.5418 31.067 46C31.067 34.4582 40.4582 25.067 52 25.067C63.5418 25.067 72.933 34.4582 72.933 46ZM70.7455 46C70.7455 35.6641 62.3359 27.2545 52 27.2545C41.6641 27.2545 33.2545 35.6641 33.2545 46C33.2545 56.3359 41.6641 64.7455 52 64.7455C62.3359 64.7455 70.7455 56.3359 70.7455 46ZM67.56 46C67.56 54.5791 60.5805 61.56 52 61.56C43.4195 61.56 36.44 54.5791 36.44 46C36.44 37.4209 43.4209 30.44 52 30.44C60.5791 30.44 67.56 37.4209 67.56 46ZM65.3725 46C65.3725 38.6268 59.3732 32.6275 52 32.6275C44.6268 32.6275 38.6275 38.6268 38.6275 46C38.6275 53.3732 44.6268 59.3725 52 59.3725C59.3732 59.3725 65.3725 53.3732 65.3725 46ZM52.3459 44.9062H51.6527C50.5467 44.9062 49.6471 44.0066 49.6471 42.9006C49.6471 41.7945 50.5467 40.8949 51.6527 40.8949H52.6289C53.2687 40.8949 53.8771 41.208 54.2559 41.733C54.61 42.2225 55.2936 42.3318 55.783 41.9777C56.2725 41.6236 56.3818 40.94 56.0277 40.4506C55.3305 39.4867 54.2572 38.8646 53.0924 38.7334V37.7709C53.0924 37.1666 52.6029 36.6771 51.9986 36.6771C51.3943 36.6771 50.9049 37.1666 50.9049 37.7709V38.7744C48.9484 39.1285 47.4582 40.8443 47.4582 42.9006C47.4582 45.2125 49.3395 47.0938 51.6514 47.0938H52.3445C53.4506 47.0938 54.3502 47.9934 54.3502 49.0994C54.3502 50.2055 53.4506 51.1051 52.3445 51.1051H51.3684C50.7285 51.1051 50.1215 50.792 49.7414 50.267C49.3873 49.7775 48.7037 49.6668 48.2143 50.0223C47.7248 50.3764 47.6154 51.06 47.9695 51.5494C48.6668 52.5146 49.74 53.1353 50.9049 53.2666V54.2291C50.9049 54.8334 51.3943 55.3229 51.9986 55.3229C52.6029 55.3229 53.0924 54.8334 53.0924 54.2291V53.2256C55.0488 52.8715 56.5391 51.1557 56.5391 49.098C56.5404 46.7875 54.6592 44.9062 52.3459 44.9062Z" fill="#0E2840"/>
</g>
<defs>
<clipPath id="clip0_60_280">
<rect width="70" height="70" fill="white" transform="translate(17 11)"/>
</clipPath>
</defs>
</svg>
